<?xml version="1.0" encoding="UTF-8"?>
<svg width="57px" height="53px" viewBox="0 0 57 53" version="1.1" xmlns="http://www.w3.org/2000/svg" xmlns:xlink="http://www.w3.org/1999/xlink">
    <title>coins</title>
    <defs>
        <filter id="filter-1">
            <feColorMatrix in="SourceGraphic" type="matrix" values="0 0 0 0 0.874510 0 0 0 0 0.913725 0 0 0 0 0.980392 0 0 0 1.000000 0"></feColorMatrix>
        </filter>
    </defs>
    <g id="Page-1" stroke="none" stroke-width="1" fill="none" fill-rule="evenodd">
        <g id="Artboard" transform="translate(-1236.000000, -115.000000)">
            <g id="Group-4" transform="translate(1215.000000, 87.000000)">
                <g filter="url(#filter-1)" id="coins">
                    <g transform="translate(21.000000, 28.000000)">
                        <path d="M37,0 C27.3054545,0 17,3.10347594 17,8.85695187 L17,15.9425134 C17,16.9203209 17.8145455,17.7139037 18.8181818,17.7139037 C19.8218182,17.7139037 20.6363636,16.9203209 20.6363636,15.9425134 L20.6363636,14.0967246 C24.4945455,16.4668449 30.8654545,17.7139037 37,17.7139037 C43.1345455,17.7139037 49.5054545,16.4668449 53.3636364,14.0967246 L53.3636364,15.9425134 C53.3636364,17.6749332 48.8909091,20.4383021 40.4836364,21.1220588 C39.4872727,21.2 38.7418182,22.0608957 38.8254545,23.0351604 C38.9018182,23.9598262 39.6981818,24.657754 40.6327273,24.657754 C40.6872727,24.657754 40.7345455,24.6542112 40.7890909,24.6506684 C45.5236364,24.2645053 50.24,23.0705882 53.3636364,21.1326872 L53.3636364,23.0280749 C53.3636364,24.5408422 50.0690909,26.7161096 43.9563636,27.7683155 C42.9709091,27.938369 42.3090909,28.859492 42.4836364,29.8195856 C42.64,30.6769385 43.4072727,31.282754 44.2690909,31.282754 C44.3745455,31.282754 44.4836364,31.2756684 44.5890909,31.2544118 C48.2872727,30.620254 51.2472727,29.5822193 53.3636364,28.2643048 L53.3636364,30.1136364 C53.3636364,31.6264037 50.0690909,33.8016711 43.9563636,34.853877 C42.9709091,35.0239305 42.3090909,35.9450535 42.4836364,36.9051471 C42.64,37.7625 43.4072727,38.3683155 44.2690909,38.3683155 C44.3745455,38.3683155 44.4836364,38.3612299 44.5890909,38.3399733 C48.2872727,37.7058155 51.2472727,36.664238 53.3636364,35.3498663 L53.3636364,37.1991979 C53.3636364,38.7119652 50.0690909,40.8872326 43.9563636,41.9394385 C42.9709091,42.109492 42.3090909,43.030615 42.4836364,43.9907086 C42.64,44.8480615 43.4072727,45.453877 44.2690909,45.453877 C44.3745455,45.453877 44.4836364,45.4467914 44.5890909,45.4255348 C48.2872727,44.791377 51.2472727,43.7497995 53.3636364,42.4354278 L53.3636364,44.2847594 C53.3636364,46.0171791 48.8909091,48.7805481 40.4836364,49.4643048 C39.4872727,49.542246 38.7418182,50.4031417 38.8254545,51.3774064 C38.9018182,52.3020722 39.6981818,53 40.6327273,53 C40.6872727,53 40.7345455,52.9964572 40.7890909,52.9929144 C48.8581818,52.3339572 57,49.3899064 57,44.2847594 L57,8.85695187 C57,3.10347594 46.6945455,0 37,0 Z M37,14.171123 C27.0109091,14.171123 20.6363636,11.0215909 20.6363636,8.85695187 C20.6363636,6.69231283 27.0109091,3.54278075 37,3.54278075 C46.9890909,3.54278075 53.3636364,6.69231283 53.3636364,8.85695187 C53.3636364,11.0215909 46.9890909,14.171123 37,14.171123 Z" id="Shape" fill="#000000" fill-rule="nonzero"></path>
                        <path d="M20,21 C10.3054545,21 0,24.1146667 0,29.8888889 L0,44.1111111 C0,49.8853333 10.3054545,53 20,53 C29.6945455,53 40,49.8853333 40,44.1111111 L40,29.8888889 C40,24.1146667 29.6945455,21 20,21 Z M36.3636364,44.1111111 C36.3636364,46.2835556 29.9890909,49.4444444 20,49.4444444 C10.0109091,49.4444444 3.63636364,46.2835556 3.63636364,44.1111111 L3.63636364,42.2586667 C7.49454545,44.6373333 13.8654545,45.8888889 20,45.8888889 C26.1345455,45.8888889 32.5054545,44.6373333 36.3636364,42.2586667 L36.3636364,44.1111111 Z M36.3636364,37 C36.3636364,39.1724444 29.9890909,42.3333333 20,42.3333333 C10.0109091,42.3333333 3.63636364,39.1724444 3.63636364,37 L3.63636364,35.1475556 C7.49454545,37.5262222 13.8654545,38.7777778 20,38.7777778 C26.1345455,38.7777778 32.5054545,37.5262222 36.3636364,35.1475556 L36.3636364,37 Z M20,35.2222222 C10.0109091,35.2222222 3.63636364,32.0613333 3.63636364,29.8888889 C3.63636364,27.7164444 10.0109091,24.5555556 20,24.5555556 C29.9890909,24.5555556 36.3636364,27.7164444 36.3636364,29.8888889 C36.3636364,32.0613333 29.9890909,35.2222222 20,35.2222222 Z" id="Shape" fill="#000000" fill-rule="nonzero"></path>
                    </g>
                </g>
            </g>
        </g>
    </g>
</svg>