<?xml version="1.0" encoding="UTF-8"?>
<svg width="17px" height="17px" viewBox="0 0 17 17" version="1.1" xmlns="http://www.w3.org/2000/svg" xmlns:xlink="http://www.w3.org/1999/xlink">
    <title>star copy 2</title>
    <g id="Page-1" stroke="none" stroke-width="1" fill="none" fill-rule="evenodd">
        <g id="Artboard" transform="translate(-1696.000000, -211.000000)" fill="#F9C34D" fill-rule="nonzero">
            <g id="Star" transform="translate(1696.000000, 211.000000)">
                <g id="star-copy-2">
                    <path d="M16.5488533,6.07627712 L11.3227839,5.27679498 L8.98033177,0.27985422 C8.8053739,-0.0932847401 8.19408386,-0.0932847401 8.01912599,0.27985422 L5.67738222,5.27679498 L0.451312803,6.07627712 C0.0220639454,6.14225036 -0.149352265,6.66507054 0.1516886,6.97365504 L3.94834516,10.8710418 L3.05088922,16.3808713 C2.97934774,16.8185647 3.44613816,17.1470121 3.8321788,16.9320671 L8.50008304,14.3484699 L13.1679873,16.9327765 C13.5504863,17.1455934 14.0215267,16.8235304 13.9492769,16.3815807 L13.0518209,10.8717512 L16.8484775,6.97436443 C17.1495184,6.66507054 16.9773938,6.14225036 16.5488533,6.07627712 L16.5488533,6.07627712 Z" id="Path"></path>
                </g>
            </g>
        </g>
    </g>
</svg>